<?xml version="1.0" encoding="utf-8"?>
<!-- Generator: Adobe Illustrator 15.0.2, SVG Export Plug-In  -->
<!DOCTYPE svg PUBLIC "-//W3C//DTD SVG 1.1//EN" "http://www.w3.org/Graphics/SVG/1.1/DTD/svg11.dtd" [
	<!ENTITY ns_flows "http://ns.adobe.com/Flows/1.0/">
]>
<svg version="1.1"
	 xmlns="http://www.w3.org/2000/svg" xmlns:xlink="http://www.w3.org/1999/xlink" xmlns:a="http://ns.adobe.com/AdobeSVGViewerExtensions/3.0/"
	 x="0px" y="0px" width="287px" height="79px" viewBox="0 0 287 79" style="overflow:visible;enable-background:new 0 0 287 79;"
	 xml:space="preserve">
<defs>
</defs>
<path id="Headwear_MFG_stroked_1_" style="fill:#FFFFFF;stroke:#FFFFFF;stroke-width:0.1;stroke-miterlimit:10;" d="
	M76.4975586,71.3320312c0-0.0712891,0.0620117-0.1337891,0.1381836-0.1337891h0.2177734
	c0.0917969,0,0.1411133,0.0625,0.1411133,0.1337891v3.0341797h4.9228516v-3.0341797
	c0-0.0712891,0.0664062-0.1337891,0.137207-0.1337891h0.2202148c0.0854492,0,0.137207,0.0625,0.137207,0.1337891v7.0068359
	c0,0.0722656-0.0517578,0.1298828-0.137207,0.1298828h-0.2202148c-0.0708008,0-0.137207-0.0576172-0.137207-0.1298828v-3.5302734
	h-4.9228516v3.5302734c0,0.0722656-0.0493164,0.1298828-0.1411133,0.1298828h-0.2177734
	c-0.0761719,0-0.1381836-0.0576172-0.1381836-0.1298828V71.3320312z M97.5952148,71.3320312
	c0-0.0712891,0.0629883-0.1337891,0.1298828-0.1337891h4.2260742c0.0639648,0,0.1303711,0.0625,0.1303711,0.1337891v0.1757812
	c0,0.078125-0.0664062,0.1367188-0.1303711,0.1367188h-3.8520508v2.7128906h3.328125
	c0.0776367,0,0.1411133,0.0673828,0.1411133,0.1357422v0.1806641c0,0.0703125-0.0634766,0.1347656-0.1411133,0.1347656h-3.328125
	v3.2265625h3.8520508c0.0639648,0,0.1303711,0.0615234,0.1303711,0.1357422v0.1679688
	c0,0.0722656-0.0664062,0.1298828-0.1303711,0.1298828h-4.2260742c-0.0668945,0-0.1298828-0.0576172-0.1298828-0.1298828V71.3320312
	z M115.980957,78.3447266l3.2460938-7.2294922c0.0136719-0.046875,0.0717773-0.0722656,0.1166992-0.0722656h0.0351562
	c0.0566406,0,0.1079102,0.0117188,0.1411133,0.0722656l3.2080078,7.2294922
	c0.0229492,0.0664062,0.0229492,0.1240234-0.0976562,0.1240234h-0.2700195c-0.0766602,0-0.1293945-0.0507812-0.1489258-0.0957031
	l-0.8569336-1.9130859h-4.0146484l-0.8422852,1.9130859c-0.0195312,0.0449219-0.0683594,0.0957031-0.144043,0.0957031h-0.2963867
	C115.980957,78.46875,115.9541016,78.4267578,115.980957,78.3447266 M121.1801758,76.0537109L119.3789062,71.875h-0.0244141
	l-1.824707,4.1787109H121.1801758z M137.0561523,71.3320312c0-0.0712891,0.0664062-0.1337891,0.1245117-0.1337891h2.2304688
	c2.046875,0,3.7045898,1.6328125,3.7045898,3.6289062c0,2.0244141-1.6577148,3.6416016-3.7045898,3.6416016h-2.2304688
	c-0.0581055,0-0.1245117-0.0576172-0.1245117-0.1298828V71.3320312z M139.3295898,78.0244141
	c1.8417969,0,3.2573242-1.3798828,3.2573242-3.1972656c0-1.8017578-1.4155273-3.1826172-3.2573242-3.1826172h-1.7788086v6.3798828
	H139.3295898z M157.2211914,71.3320312c-0.015625-0.1083984,0.0283203-0.1337891,0.1147461-0.1337891h0.2573242
	c0.0605469,0,0.1166992,0.0507812,0.1245117,0.1171875l1.7666016,6.0908203h0.0253906l1.8461914-6.2197266
	c0.0195312-0.0654297,0.1010742-0.0917969,0.1557617-0.0917969h0.0195312c0.0644531,0,0.144043,0.0263672,0.1625977,0.0917969
	l1.862793,6.2197266h0.0214844l1.7568359-6.0908203c0.0058594-0.0664062,0.0585938-0.1171875,0.1240234-0.1171875h0.2548828
	c0.0947266,0,0.1308594,0.0253906,0.1083984,0.1337891l-2.081543,7.1708984
	c-0.0068359,0.0371094-0.0478516,0.0712891-0.0883789,0.0712891h-0.1171875c-0.0546875,0-0.0874023-0.0195312-0.1030273-0.0712891
	l-1.9008789-6.3330078h-0.0195312l-1.894043,6.3330078c-0.0166016,0.0517578-0.0527344,0.0712891-0.1040039,0.0712891h-0.109375
	c-0.0439453,0-0.0844727-0.0341797-0.0961914-0.0712891L157.2211914,71.3320312z M180.4794922,71.3320312
	c0-0.0712891,0.0605469-0.1337891,0.1328125-0.1337891h4.2138672c0.0810547,0,0.1386719,0.0625,0.1386719,0.1337891v0.1757812
	c0,0.078125-0.0576172,0.1367188-0.1386719,0.1367188h-3.8447266v2.7128906h3.3330078
	c0.0771484,0,0.1376953,0.0673828,0.1376953,0.1357422v0.1806641c0,0.0703125-0.0605469,0.1347656-0.1376953,0.1347656h-3.3330078
	v3.2265625h3.8447266c0.0810547,0,0.1386719,0.0615234,0.1386719,0.1357422v0.1679688
	c0,0.0722656-0.0576172,0.1298828-0.1386719,0.1298828h-4.2138672c-0.0722656,0-0.1328125-0.0576172-0.1328125-0.1298828V71.3320312
	z M198.8642578,78.3447266l3.2451172-7.2294922c0.015625-0.046875,0.0732422-0.0722656,0.1259766-0.0722656h0.0332031
	c0.0478516,0,0.1035156,0.0117188,0.1328125,0.0722656l3.2070312,7.2294922
	c0.0195312,0.0664062,0.0195312,0.1240234-0.0888672,0.1240234h-0.2802734c-0.0800781,0-0.125-0.0507812-0.1445312-0.0957031
	l-0.8486328-1.9130859h-4.0253906l-0.8369141,1.9130859c-0.0205078,0.0449219-0.0761719,0.0957031-0.1464844,0.0957031h-0.3007812
	C198.8642578,78.46875,198.8388672,78.4267578,198.8642578,78.3447266 M204.0644531,76.0537109L202.2685547,71.875h-0.0234375
	l-1.828125,4.1787109H204.0644531z M219.9423828,71.3320312c0-0.0712891,0.0537109-0.1337891,0.1357422-0.1337891h2.609375
	c1.2802734,0,2.3476562,0.9521484,2.3476562,2.2207031c0,1.0537109-0.7402344,1.8994141-1.7392578,2.1728516l1.5351562,2.6933594
	c0.0537109,0.0810547,0.0341797,0.1835938-0.0732422,0.1835938h-0.3300781c-0.0683594,0-0.109375-0.0263672-0.1425781-0.0957031
	l-1.5322266-2.7216797c-0.1289062,0.0117188-0.2460938,0.0117188-0.3857422,0.0117188h-1.9287109v2.6757812
	c0,0.0722656-0.0673828,0.1298828-0.1699219,0.1298828h-0.1904297c-0.0761719,0-0.1357422-0.0576172-0.1357422-0.1298828V71.3320312
	z M222.6660156,75.2324219c1.0097656,0,1.8632812-0.7841797,1.8632812-1.8134766
	c0-0.9853516-0.8535156-1.7412109-1.8769531-1.7412109h-2.2080078v3.5546875H222.6660156z"/>
<path id="Headwear_MFG_1_" style="fill:#FFFFFF;" d="M76.4975586,71.3320312c0-0.0712891,0.0620117-0.1337891,0.1381836-0.1337891
	h0.2177734c0.0917969,0,0.1411133,0.0625,0.1411133,0.1337891v3.0341797h4.9228516v-3.0341797
	c0-0.0712891,0.0664062-0.1337891,0.137207-0.1337891h0.2202148c0.0854492,0,0.137207,0.0625,0.137207,0.1337891v7.0068359
	c0,0.0722656-0.0517578,0.1298828-0.137207,0.1298828h-0.2202148c-0.0708008,0-0.137207-0.0576172-0.137207-0.1298828v-3.5302734
	h-4.9228516v3.5302734c0,0.0722656-0.0493164,0.1298828-0.1411133,0.1298828h-0.2177734
	c-0.0761719,0-0.1381836-0.0576172-0.1381836-0.1298828V71.3320312z M97.5952148,71.3320312
	c0-0.0712891,0.0629883-0.1337891,0.1298828-0.1337891h4.2255859c0.0649414,0,0.1303711,0.0625,0.1303711,0.1337891v0.1757812
	c0,0.078125-0.0654297,0.1367188-0.1303711,0.1367188h-3.8515625v2.7128906h3.328125
	c0.078125,0,0.1411133,0.0673828,0.1411133,0.1357422v0.1806641c0,0.0703125-0.0629883,0.1347656-0.1411133,0.1347656h-3.328125
	v3.2265625h3.8515625c0.0649414,0,0.1303711,0.0615234,0.1303711,0.1357422v0.1679688
	c0,0.0722656-0.0654297,0.1298828-0.1303711,0.1298828h-4.2255859c-0.0668945,0-0.1298828-0.0576172-0.1298828-0.1298828V71.3320312
	z M115.980957,78.3447266l3.2460938-7.2294922c0.0136719-0.046875,0.0712891-0.0722656,0.1171875-0.0722656h0.0351562
	c0.0556641,0,0.1074219,0.0117188,0.140625,0.0722656l3.2080078,7.2294922
	c0.0229492,0.0664062,0.0229492,0.1240234-0.097168,0.1240234h-0.2705078c-0.0766602,0-0.1289062-0.0507812-0.1489258-0.0957031
	l-0.8569336-1.9130859h-4.0146484l-0.8417969,1.9130859c-0.0195312,0.0449219-0.0688477,0.0957031-0.1445312,0.0957031h-0.2963867
	C115.980957,78.46875,115.9545898,78.4267578,115.980957,78.3447266 M121.1806641,76.0537109L119.3793945,71.875h-0.0249023
	l-1.824707,4.1787109H121.1806641z M137.0561523,71.3320312c0-0.0712891,0.065918-0.1337891,0.1245117-0.1337891h2.2299805
	c2.0473633,0,3.7050781,1.6328125,3.7050781,3.6289062c0,2.0244141-1.6577148,3.6416016-3.7050781,3.6416016h-2.2299805
	c-0.0585938,0-0.1245117-0.0576172-0.1245117-0.1298828V71.3320312z M139.3300781,78.0244141
	c1.8413086,0,3.2573242-1.3798828,3.2573242-3.1972656c0-1.8017578-1.4160156-3.1826172-3.2573242-3.1826172h-1.7792969v6.3798828
	H139.3300781z M157.2207031,71.3320312c-0.0146484-0.1083984,0.0288086-0.1337891,0.1152344-0.1337891h0.2578125
	c0.0605469,0,0.1162109,0.0507812,0.1240234,0.1171875l1.7670898,6.0908203h0.0244141l1.8461914-6.2197266
	c0.0205078-0.0654297,0.1010742-0.0917969,0.1567383-0.0917969h0.0195312c0.0634766,0,0.1435547,0.0263672,0.1621094,0.0917969
	l1.8623047,6.2197266h0.0224609l1.7563477-6.0908203c0.0058594-0.0664062,0.0585938-0.1171875,0.1240234-0.1171875h0.2548828
	c0.0947266,0,0.1308594,0.0253906,0.1083984,0.1337891l-2.081543,7.1708984
	c-0.0068359,0.0371094-0.0483398,0.0712891-0.0878906,0.0712891h-0.1171875c-0.0546875,0-0.0883789-0.0195312-0.1030273-0.0712891
	l-1.9008789-6.3330078h-0.0195312l-1.8945312,6.3330078c-0.0166016,0.0517578-0.0527344,0.0712891-0.1035156,0.0712891h-0.1103516
	c-0.043457,0-0.0839844-0.0341797-0.0957031-0.0712891L157.2207031,71.3320312z M180.4794922,71.3320312
	c0-0.0712891,0.0605469-0.1337891,0.1328125-0.1337891h4.2138672c0.0810547,0,0.1386719,0.0625,0.1386719,0.1337891v0.1757812
	c0,0.078125-0.0576172,0.1367188-0.1386719,0.1367188h-3.8447266v2.7128906h3.3330078
	c0.0771484,0,0.1376953,0.0673828,0.1376953,0.1357422v0.1806641c0,0.0703125-0.0605469,0.1347656-0.1376953,0.1347656h-3.3330078
	v3.2265625h3.8447266c0.0810547,0,0.1386719,0.0615234,0.1386719,0.1357422v0.1679688
	c0,0.0722656-0.0576172,0.1298828-0.1386719,0.1298828h-4.2138672c-0.0722656,0-0.1328125-0.0576172-0.1328125-0.1298828V71.3320312
	z M198.8642578,78.3447266l3.2451172-7.2294922c0.015625-0.046875,0.0732422-0.0722656,0.1259766-0.0722656h0.0332031
	c0.0478516,0,0.1035156,0.0117188,0.1328125,0.0722656l3.2070312,7.2294922
	c0.0195312,0.0664062,0.0195312,0.1240234-0.0888672,0.1240234h-0.2802734c-0.0800781,0-0.125-0.0507812-0.1445312-0.0957031
	l-0.8486328-1.9130859h-4.0253906l-0.8369141,1.9130859c-0.0205078,0.0449219-0.0761719,0.0957031-0.1464844,0.0957031h-0.3007812
	C198.8642578,78.46875,198.8388672,78.4267578,198.8642578,78.3447266 M204.0644531,76.0537109L202.2685547,71.875h-0.0234375
	l-1.828125,4.1787109H204.0644531z M219.9423828,71.3320312c0-0.0712891,0.0537109-0.1337891,0.1357422-0.1337891h2.609375
	c1.2802734,0,2.3476562,0.9521484,2.3476562,2.2207031c0,1.0537109-0.7402344,1.8994141-1.7392578,2.1728516l1.5351562,2.6933594
	c0.0537109,0.0810547,0.0341797,0.1835938-0.0732422,0.1835938h-0.3300781c-0.0683594,0-0.109375-0.0263672-0.1425781-0.0957031
	l-1.5322266-2.7216797c-0.1289062,0.0117188-0.2460938,0.0117188-0.3857422,0.0117188h-1.9287109v2.6757812
	c0,0.0722656-0.0673828,0.1298828-0.1699219,0.1298828h-0.1904297c-0.0761719,0-0.1357422-0.0576172-0.1357422-0.1298828V71.3320312
	z M222.6660156,75.2324219c1.0097656,0,1.8632812-0.7841797,1.8632812-1.8134766
	c0-0.9853516-0.8535156-1.7412109-1.8769531-1.7412109h-2.2080078v3.5546875H222.6660156z M239.4433594,71.2607422
	c0.0078125-0.0927734,0.0986328-0.1660156,0.1875-0.1660156h0.171875c0.046875,0,0.1445312,0.0439453,0.1757812,0.1035156
	l2.4404297,4.4853516h0.0244141l2.4365234-4.4853516c0.0371094-0.0595703,0.125-0.1035156,0.1816406-0.1035156h0.1669922
	c0.0830078,0,0.1796875,0.0732422,0.1914062,0.1660156l1.1904297,6.9794922
	c0.0195312,0.1328125-0.0810547,0.2285156-0.2050781,0.2285156h-1.2441406c-0.0917969,0-0.1816406-0.078125-0.1914062-0.1611328
	l-0.4755859-3.2109375h-0.0234375l-1.7675781,3.3603516c-0.0273438,0.0673828-0.1230469,0.1171875-0.1738281,0.1171875h-0.1904297
	c-0.0644531,0-0.1533203-0.0498047-0.1826172-0.1171875l-1.7753906-3.3603516h-0.0292969l-0.4589844,3.2109375
	c-0.0078125,0.0830078-0.0898438,0.1611328-0.1923828,0.1611328h-1.2451172c-0.1289062,0-0.2148438-0.0957031-0.1992188-0.2285156
	L239.4433594,71.2607422z M261.1152344,71.3955078c0-0.109375,0.0810547-0.1972656,0.1953125-0.1972656h4.3564453
	c0.1123047,0,0.1992188,0.0878906,0.1992188,0.1972656v1.1328125c0,0.1054688-0.0869141,0.1943359-0.1992188,0.1943359H262.75
	v1.4990234h2.3935547c0.1123047,0,0.2099609,0.0957031,0.2099609,0.1972656v1.1240234
	c0,0.1083984-0.0976562,0.2080078-0.2099609,0.2080078H262.75v2.5205078c0,0.1015625-0.0927734,0.1972656-0.2001953,0.1972656
	h-1.2392578c-0.1142578,0-0.1953125-0.0957031-0.1953125-0.1972656V71.3955078z M283.4384766,71.1064453
	c0.8818359,0,1.8457031,0.3583984,2.5605469,0.9775391c0.09375,0.0664062,0.109375,0.1962891,0.0195312,0.28125
	l-0.8300781,0.8720703c-0.0791016,0.0703125-0.1953125,0.0703125-0.2832031,0.0097656
	C284.5019531,72.875,284.0400391,72.75,283.5351562,72.75c-1.1591797,0-2.0820312,0.9521484-2.0820312,2.0976562
	c0,1.1279297,0.9384766,2.0673828,2.0820312,2.0673828c0.3066406,0,0.6210938-0.0439453,0.9394531-0.1748047v-0.5966797H283.8125
	c-0.1152344,0-0.2011719-0.0898438-0.2011719-0.1875v-1.0322266c0-0.1132812,0.0859375-0.1923828,0.2011719-0.1923828h2.1201172
	c0.0976562,0,0.1855469,0.0957031,0.1855469,0.1923828l0.0097656,2.7998047c0,0.046875-0.0429688,0.1318359-0.0859375,0.1708984
	c0,0-1.0859375,0.6728516-2.6035156,0.6728516c-2.0996094,0-3.7832031-1.6425781-3.7832031-3.7197266
	C279.6552734,72.7675781,281.3388672,71.1064453,283.4384766,71.1064453"/>
<path id="Reach_1_" style="fill:#FFFFFF;" d="M103.3711,33.0195c5.1411,2.6885,6.4429,6.5195,6.3179,11.0088
	c-0.1948,6.917-0.0498,13.8418-0.0498,20.8896H98.9717v-2.0254c0-6.7334,0.0122-13.4639-0.0039-20.1934
	c-0.0107-3.999-2.2939-5.8174-7.2544-5.8408c-1.5747-0.0107-3.147,0-4.9668,0v28.0439H76V1.291
	c7.0117,0,13.9995-0.4512,20.8545,0.125c6.8906,0.582,12.3774,6.1045,12.6987,11.6494c0.1748,3.0283-0.0547,6.0723,0.1133,9.1006
	C109.9072,26.6016,108.4106,30.3623,103.3711,33.0195 M86.7686,9.5859v19.5029c2.0293,0,3.9116,0.0244,5.7964-0.0078
	c3.877-0.0684,6.2402-1.7871,6.3701-4.8604c0.1372-3.2822,0.1235-6.5801-0.0044-9.8672c-0.1011-2.5518-2.105-4.4961-4.9365-4.7305
	C91.647,9.4277,89.2539,9.5859,86.7686,9.5859 M276.3984,37.4453v27.4512H287V1.0078h-10.7031v27.5693h-13.5137V1.0391h-10.5469
	v63.8545h10.5977V37.4453H276.3984z M196.6914,64.9521h-10.7148c-0.8574-4.8125-1.7061-9.6104-2.5684-14.4658h-13.3301
	c-0.8408,4.7812-1.6885,9.584-2.5527,14.4541h-10.7197c4.1016-21.3496,8.1709-42.5654,12.2646-63.9043h15.3447
	C188.5,22.293,192.5801,43.5635,196.6914,64.9521 M171.2656,42.6191h10.9531c-1.7646-10.3525-3.5166-20.6133-5.2656-30.875
	c-0.1445,0.0137-0.293,0.0215-0.4443,0.0312C174.7725,22.0059,173.0332,32.2324,171.2656,42.6191 M229.2861,52.749
	c-0.2793,2.6973-3.1104,4.5889-6.3262,4.6982c-3.209,0.1172-6.0889-1.6055-6.9004-4.21c-0.252-0.8174-0.2949-1.6895-0.2949-2.543
	c-0.0156-11.7998-0.0078-23.6094-0.0039-35.418c0-0.5908-0.0332-1.1914,0.0527-1.7754c0.3984-2.6455,2.8613-4.6367,6.1162-4.9639
	c2.8574-0.2988,5.915,1.0596,6.9375,3.3076c0.4951,1.082,0.6182,2.3164,0.6592,3.4844c0.0889,2.6152,0.0254,5.2373,0.0254,7.9922
	c3.75-0.3369,7.1553-0.6436,10.6641-0.959c0-3.0439,0.0576-5.8037-0.0098-8.5674c-0.1816-7.6133-7.5557-13.5986-16.9482-13.79
	c-9.6807-0.1953-17.7686,5.3301-18.0537,13.0166c-0.4033,10.8096-0.1846,21.6299-0.2139,32.4492
	c-0.0039,2.5664-0.0586,5.1465,0.1826,7.707c0.5732,6.2725,6.5244,11.4766,14.1924,12.5908
	c7.8672,1.1465,15.7969-2.0537,19.1826-7.7578c2.6699-4.5098,1.3945-9.2461,1.6465-13.9424h-10.8457
	C229.3486,47.1055,229.5732,49.9414,229.2861,52.749 M151.189,56.4053h-19.4751V37.248h11.8906V28.667h-11.8828V9.418h17.0942V1.041
	h-27.8296v63.877h28.7471L151.189,56.4053z"/>
<path id="logo_path_00_1_" style="fill:#005173;" d="M21,74.8389C21,77.1387,19.1401,79,16.8403,79H4.1636
	C1.8633,79,0,77.1387,0,74.8389V4.1621C0,1.8633,1.8633,0,4.1636,0h12.6768C19.1401,0,21,1.8633,21,4.1621V74.8389z"/>
<path id="logo_path_02_1_" style="fill:#4D859D;" d="M25,38.1699C25,35.8662,26.8691,34,29.1729,34H57.833
	C60.1357,34,62,35.8662,62,38.1699v36.666C62,77.1367,60.1357,79,57.833,79H29.1729C26.8691,79,25,77.1367,25,74.8359V38.1699z"/>
<path id="logo_path_01_1_" style="fill:#266B88;" d="M25,4.1963C25,1.8789,26.8691,0,29.1729,0H57.833
	C60.1357,0,62,1.8789,62,4.1963v21.6084C62,28.125,60.1357,30,57.833,30H29.1729C26.8691,30,25,28.125,25,25.8047V4.1963z"/>
</svg>
